<svg id="图层_1" data-name="图层 1" xmlns="http://www.w3.org/2000/svg" xmlns:xlink="http://www.w3.org/1999/xlink" viewBox="0 0 691.73 691.73"><defs><style>.cls-1{fill:none;}.cls-2{clip-path:url(#clip-path);}.cls-3{fill:#00dbff;}.cls-4{fill:#33ecff;}.cls-5{fill:#c2ffff;}.cls-6{fill:#fff;}</style><clipPath id="clip-path" transform="translate(-613.91 -194.19)"><rect class="cls-1" x="614.03" y="194" width="691.88" height="692.88"/></clipPath></defs><g class="cls-2"><path class="cls-3" d="M613.91,540.06c0,191,154.85,345.86,345.87,345.86s345.86-154.85,345.86-345.86S1150.79,194.19,959.78,194.19,613.91,349,613.91,540.06Zm0,0" transform="translate(-613.91 -194.19)"/></g><path class="cls-4" d="M779.77,464.73a205,205,0,0,0-165.69,84C617.73,695,712,818.62,842.85,865.61c82.57-26.63,142.33-104,142.33-195.51,0-113.38-91.95-205.37-205.41-205.37Zm0,0" transform="translate(-613.91 -194.19)"/><path class="cls-5" d="M820.16,362.37a28.91,28.91,0,0,1,21,8.39,27.76,27.76,0,0,1,8.6,20.73V414a29.38,29.38,0,0,1-29.56,29.57H796.78A28,28,0,0,1,776.26,435a28.53,28.53,0,0,1-8.6-21v-22.5a27.8,27.8,0,0,1,8.6-20.73,28.4,28.4,0,0,1,20.52-8.39Z" transform="translate(-613.91 -194.19)"/><path class="cls-6" d="M1122.84,362.37a28.4,28.4,0,0,1,20.52,8.39,27.8,27.8,0,0,1,8.6,20.73V414a28.53,28.53,0,0,1-8.6,21,28,28,0,0,1-20.52,8.61H934.44A29.38,29.38,0,0,1,904.88,414v-22.5a27.8,27.8,0,0,1,8.6-20.73,28.91,28.91,0,0,1,21-8.39Z" transform="translate(-613.91 -194.19)"/><path class="cls-5" d="M820.16,499.59a29.38,29.38,0,0,1,29.56,29.56v22.51a28,28,0,0,1-8.6,20.51,28.52,28.52,0,0,1-21,8.61H796.78a29.38,29.38,0,0,1-29.12-29.12V529.15a28.52,28.52,0,0,1,8.6-20.95,28,28,0,0,1,20.52-8.61Z" transform="translate(-613.91 -194.19)"/><path class="cls-6" d="M1122.84,499.59a28,28,0,0,1,20.52,8.61,28.52,28.52,0,0,1,8.6,20.95v22.51a29.38,29.38,0,0,1-29.12,29.12H934.44a28.52,28.52,0,0,1-21-8.61,28,28,0,0,1-8.6-20.51V529.15a29.38,29.38,0,0,1,29.56-29.56Z" transform="translate(-613.91 -194.19)"/><path class="cls-5" d="M820.16,637.25a28.52,28.52,0,0,1,21,8.61,28,28,0,0,1,8.6,20.51v22.5a29.38,29.38,0,0,1-29.56,29.57H796.78a28,28,0,0,1-20.52-8.61,28.53,28.53,0,0,1-8.6-21v-22.5a29.38,29.38,0,0,1,29.12-29.12Z" transform="translate(-613.91 -194.19)"/><path class="cls-6" d="M1122.84,637.25A29.38,29.38,0,0,1,1152,666.37v22.5a28.53,28.53,0,0,1-8.6,21,28,28,0,0,1-20.52,8.61H934.44a29.38,29.38,0,0,1-29.56-29.57v-22.5a28,28,0,0,1,8.6-20.51,28.52,28.52,0,0,1,21-8.61Z" transform="translate(-613.91 -194.19)"/><path d="M1122.84,637.25" transform="translate(-613.91 -194.19)"/></svg>