<svg id="图层_1" data-name="图层 1" xmlns="http://www.w3.org/2000/svg" xmlns:xlink="http://www.w3.org/1999/xlink" viewBox="0 0 691.73 691.73"><defs><style>.cls-1{fill:none;}.cls-2{clip-path:url(#clip-path);}.cls-3{fill:#ff6161;}.cls-4{fill:#ff7d7d;}.cls-5{fill:#fff;}.cls-6{fill:#ffcac7;}</style><clipPath id="clip-path" transform="translate(-613.88 -194.19)"><rect class="cls-1" x="614" y="194" width="691.88" height="692.88"/></clipPath></defs><g class="cls-2"><path class="cls-3" d="M613.88,540.06c0,191,154.85,345.86,345.87,345.86s345.86-154.85,345.86-345.86S1150.76,194.19,959.75,194.19,613.88,349,613.88,540.06Zm0,0" transform="translate(-613.88 -194.19)"/></g><path class="cls-4" d="M779.77,464.73a205,205,0,0,0-165.69,84C617.73,695,712,818.62,842.85,865.61c82.57-26.63,142.33-104,142.33-195.51,0-113.42-91.95-205.37-205.41-205.37Zm0,0" transform="translate(-613.88 -194.19)"/><path class="cls-5" d="M1140.28,343c-7.76-3.91-15.46-3.91-19.31,0L734.68,537.84c-7.76,0-11.56,7.81-11.56,15.62s3.85,15.62,7.76,15.62l92.68,58.47c7.75,3.91,15.46,3.91,23.17-3.9l204.73-187.08,7.75,3.9L873.75,639.16c-3.85,3.91-3.85,7.81-3.85,11.66v85.76c0,7.81,3.85,15.62,11.56,19.47s15.46,0,19.31-3.9l46.39-46.81,92.69,62.32c3.85,3.91,7.75,3.91,11.55,3.91h7.76c7.76-3.91,11.56-7.81,11.56-15.62L1148,366.33c0-11.72,0-19.48-7.71-23.38Zm0,0" transform="translate(-613.88 -194.19)"/><path class="cls-6" d="M873.75,639.16c-3.85,3.91-3.85,7.81-3.85,11.66v85.76c0,7.81,3.85,15.62,11.56,19.47s15.46,0,19.31-3.9l46.39-46.81" transform="translate(-613.88 -194.19)"/><rect class="cls-1" x="109.32" y="145.32" width="424.87" height="432.68"/></svg>