<svg id="图层_1" data-name="图层 1" xmlns="http://www.w3.org/2000/svg" xmlns:xlink="http://www.w3.org/1999/xlink" viewBox="0 0 691.73 691.73"><defs><style>.cls-1{fill:none;}.cls-2{clip-path:url(#clip-path);}.cls-3{fill:#8d8dff;}.cls-4{fill:#a6a6ff;}.cls-5{fill:#d7d7ff;}.cls-6{fill:#fff;}</style><clipPath id="clip-path" transform="translate(-613.91 -194.19)"><rect class="cls-1" x="614.03" y="194" width="691.88" height="692.88"/></clipPath></defs><g class="cls-2"><path class="cls-3" d="M613.91,540.06c0,191,154.85,345.86,345.87,345.86s345.86-154.85,345.86-345.86S1150.79,194.19,959.78,194.19,613.91,349,613.91,540.06Zm0,0" transform="translate(-613.91 -194.19)"/></g><path class="cls-4" d="M779.81,464.73a205,205,0,0,0-165.68,84C617.77,695,712,818.62,842.89,865.61c82.57-26.63,142.33-104,142.33-195.51,0-113.42-92-205.37-205.41-205.37Zm0,0" transform="translate(-613.91 -194.19)"/><path class="cls-5" d="M837.79,716.71h244a20.35,20.35,0,0,1,0,40.69h-244a20.35,20.35,0,0,1,0-40.69Z" transform="translate(-613.91 -194.19)"/><path class="cls-6" d="M1142.78,350.74h-366a20.28,20.28,0,0,0-20.29,20.34V655.73A20.25,20.25,0,0,0,776.81,676h366a20.25,20.25,0,0,0,20.3-20.29V371.08A20.35,20.35,0,0,0,1142.78,350.74Zm-81.32,183h-29.55c-2.9,4.17-6.28,8.58-10.05,13l24.26,24.22-28.77,28.77-24.22-24.21a163.31,163.31,0,0,1-13,10V615.1H939.46V585.49c-4.12-2.9-8.49-6.28-12.94-10L902.3,599.65l-28.77-28.77,24.21-24.12a161,161,0,0,1-10-13H858.13V493.09h29.56c3.14-4.51,6.52-8.82,10-13l-24.21-24.22,28.67-28.72,24.22,24.21a163.31,163.31,0,0,1,13-10.05v-29.6h40.68v29.56a159.93,159.93,0,0,1,13,10l24.22-24.21,28.77,28.72-24.21,24.22c3.53,4.16,6.91,8.53,10.05,13h29.55Z" transform="translate(-613.91 -194.19)"/><path d="M939.46,585.49" transform="translate(-613.91 -194.19)"/></svg>