<svg id="图层_1" data-name="图层 1" xmlns="http://www.w3.org/2000/svg" xmlns:xlink="http://www.w3.org/1999/xlink" viewBox="0 0 691.73 691.73"><defs><style>.cls-1{fill:none;}.cls-2{clip-path:url(#clip-path);}.cls-3{fill:#ed5df9;}.cls-4{fill:#f27dff;}.cls-5{fill:#fff;}.cls-6{fill:#f8caff;}</style><clipPath id="clip-path" transform="translate(-613.91 -194.19)"><rect class="cls-1" x="614.03" y="194" width="691.88" height="692.88"/></clipPath></defs><g class="cls-2"><path class="cls-3" d="M613.91,540.06c0,191,154.85,345.86,345.87,345.86s345.86-154.85,345.86-345.86S1150.79,194.19,959.78,194.19,613.91,349,613.91,540.06Zm0,0" transform="translate(-613.91 -194.19)"/></g><path class="cls-4" d="M779.77,464.77a205,205,0,0,0-165.69,84.05C617.73,695,712,818.66,842.85,865.65c82.57-26.63,142.33-104,142.33-195.5,0-113.43-91.95-205.38-205.41-205.38Zm0,0" transform="translate(-613.91 -194.19)"/><path class="cls-5" d="M1132.88,693.2c0-10.8,12.29-20.2,20.57-25.32L1153,384.81c-.66,0-4.19-29.05-19.18-43.47s-45.15-14.53-45.8-14.53c-91.31,0-176.77-.18-268,0A59.8,59.8,0,0,0,802,329.6c-23.18,7.45-37.7,29-37.7,55.21v300.1c.56,19.74,7.35,41,22.62,53.44a56.7,56.7,0,0,0,36.77,12.94H1153v-1.68c.27,0,.46-10.43.46-31.18C1144.89,713.21,1133,703.63,1132.88,693.2Zm-52.32-118.59H834.91v-53.9h245.65Zm0-103.89H834.91v-54h245.65Z" transform="translate(-613.91 -194.19)"/><path class="cls-6" d="M1119.48,722.52H827.56a27.49,27.49,0,0,1-24.76-14.43,30.46,30.46,0,0,1,0-29.88,27.25,27.25,0,0,1,24.76-14.33h291.92c-4.75,8.66-14.34,18.52-14.34,29.32s9.59,20.57,14.34,29.32Z" transform="translate(-613.91 -194.19)"/><path class="cls-5" d="M1119.48,722.52" transform="translate(-613.91 -194.19)"/></svg>
