<?xml version="1.0" standalone="no"?><!DOCTYPE svg PUBLIC "-//W3C//DTD SVG 1.1//EN" "http://www.w3.org/Graphics/SVG/1.1/DTD/svg11.dtd"><svg t="1657161879559" class="icon" viewBox="0 0 1024 1024" version="1.1" xmlns="http://www.w3.org/2000/svg" p-id="1201" xmlns:xlink="http://www.w3.org/1999/xlink" width="200" height="200"><defs><style type="text/css">@font-face { font-family: feedback-iconfont; src: url("//at.alicdn.com/t/font_1031158_u69w8yhxdu.woff2?t=1630033759944") format("woff2"), url("//at.alicdn.com/t/font_1031158_u69w8yhxdu.woff?t=1630033759944") format("woff"), url("//at.alicdn.com/t/font_1031158_u69w8yhxdu.ttf?t=1630033759944") format("truetype"); }
</style></defs><path d="M512 38.4c-235.15 0-430.17 171.41-467.18 396.07C18.05 449.97 0 478.85 0 512s18.05 62.03 44.82 77.53C81.83 814.19 276.85 985.6 512 985.6s430.16-171.41 467.18-396.07c26.77-15.5 44.82-44.38 44.82-77.53s-18.05-62.03-44.82-77.53C942.16 209.81 747.15 38.4 512 38.4z" fill="#25467A" p-id="1202"></path><path d="M972.8 512c0 1.41-0.13 2.69-0.26 4.1-1.28 12.16-8.19 22.78-19.07 29.18l-20.86 12.03-3.97 23.94C894.98 785.92 719.74 934.4 512 934.4S129.02 785.92 95.36 581.25l-3.97-23.94-20.86-12.03c-10.88-6.4-17.79-17.02-19.07-29.18-0.13-1.41-0.26-2.69-0.26-4.1 0-7.55 2.18-14.85 6.14-20.86 3.33-4.99 7.68-9.22 13.18-12.42l20.86-12.03 3.97-23.94C129.02 238.08 304.26 89.6 512 89.6s382.98 148.48 416.64 353.15l3.97 23.94 20.86 12.03c5.5 3.2 9.86 7.42 13.18 12.42 3.97 6.01 6.15 13.31 6.15 20.86z" fill="#FCAF6D" p-id="1203"></path><path d="M512 486.4c-35.29 0-64-28.71-64-64 0-7.07 5.73-12.8 12.8-12.8s12.8 5.73 12.8 12.8c0 21.18 17.23 38.4 38.4 38.4s38.4-17.22 38.4-38.4c0-7.07 5.73-12.8 12.8-12.8s12.8 5.73 12.8 12.8c0 35.29-28.71 64-64 64z" fill="#25467A" p-id="1204"></path><path d="M384 320m-38.4 0a38.4 38.4 0 1 0 76.8 0 38.4 38.4 0 1 0-76.8 0Z" fill="#25467A" p-id="1205"></path><path d="M640 320m-38.4 0a38.4 38.4 0 1 0 76.8 0 38.4 38.4 0 1 0-76.8 0Z" fill="#25467A" p-id="1206"></path><path d="M332.8 384h-51.2c-14.14 0-25.6 11.46-25.6 25.6s11.46 25.6 25.6 25.6h51.2c14.14 0 25.6-11.46 25.6-25.6S346.94 384 332.8 384zM742.4 384h-51.2c-14.14 0-25.6 11.46-25.6 25.6s11.46 25.6 25.6 25.6h51.2c14.14 0 25.6-11.46 25.6-25.6S756.54 384 742.4 384z" fill="#FCCEC7" p-id="1207"></path><path d="M428.8 185.6m-19.2 0a19.2 19.2 0 1 0 38.4 0 19.2 19.2 0 1 0-38.4 0Z" fill="#AD6418" p-id="1208"></path><path d="M224 723.2m-19.2 0a19.2 19.2 0 1 0 38.4 0 19.2 19.2 0 1 0-38.4 0Z" fill="#AD6418" p-id="1209"></path><path d="M224 620.8m-19.2 0a19.2 19.2 0 1 0 38.4 0 19.2 19.2 0 1 0-38.4 0Z" fill="#AD6418" p-id="1210"></path><path d="M339.2 672m-19.2 0a19.2 19.2 0 1 0 38.4 0 19.2 19.2 0 1 0-38.4 0Z" fill="#AD6418" p-id="1211"></path><path d="M428.8 825.6m-19.2 0a19.2 19.2 0 1 0 38.4 0 19.2 19.2 0 1 0-38.4 0Z" fill="#AD6418" p-id="1212"></path><path d="M512 697.6m-19.2 0a19.2 19.2 0 1 0 38.4 0 19.2 19.2 0 1 0-38.4 0Z" fill="#AD6418" p-id="1213"></path><path d="M147.2 441.6m-19.2 0a19.2 19.2 0 1 0 38.4 0 19.2 19.2 0 1 0-38.4 0Z" fill="#AD6418" p-id="1214"></path><path d="M326.4 211.2m-19.2 0a19.2 19.2 0 1 0 38.4 0 19.2 19.2 0 1 0-38.4 0Z" fill="#AD6418" p-id="1215"></path><path d="M300.8 748.8m-19.2 0a19.2 19.2 0 1 0 38.4 0 19.2 19.2 0 1 0-38.4 0Z" fill="#AD6418" p-id="1216"></path><path d="M595.2 185.6m-19.2 0a19.2 19.2 0 1 0 38.4 0 19.2 19.2 0 1 0-38.4 0Z" fill="#AD6418" p-id="1217"></path><path d="M800 723.2m-19.2 0a19.2 19.2 0 1 0 38.4 0 19.2 19.2 0 1 0-38.4 0Z" fill="#AD6418" p-id="1218"></path><path d="M800 620.8m-19.2 0a19.2 19.2 0 1 0 38.4 0 19.2 19.2 0 1 0-38.4 0Z" fill="#AD6418" p-id="1219"></path><path d="M684.8 672m-19.2 0a19.2 19.2 0 1 0 38.4 0 19.2 19.2 0 1 0-38.4 0Z" fill="#AD6418" p-id="1220"></path><path d="M595.2 825.6m-19.2 0a19.2 19.2 0 1 0 38.4 0 19.2 19.2 0 1 0-38.4 0Z" fill="#AD6418" p-id="1221"></path><path d="M876.8 441.6m-19.2 0a19.2 19.2 0 1 0 38.4 0 19.2 19.2 0 1 0-38.4 0Z" fill="#AD6418" p-id="1222"></path><path d="M697.6 211.2m-19.2 0a19.2 19.2 0 1 0 38.4 0 19.2 19.2 0 1 0-38.4 0Z" fill="#AD6418" p-id="1223"></path><path d="M723.2 748.8m-19.2 0a19.2 19.2 0 1 0 38.4 0 19.2 19.2 0 1 0-38.4 0Z" fill="#AD6418" p-id="1224"></path><path d="M966.66 491.14C839.94 529.54 680.58 550.4 512 550.4s-327.94-20.86-454.66-59.26c-3.97 6.02-6.14 13.31-6.14 20.86 0 1.41 0.13 2.69 0.26 4.1C176 553.47 336.64 576 512 576s336-22.53 460.54-59.9c0.13-1.41 0.26-2.69 0.26-4.1 0-7.55-2.18-14.85-6.14-20.86z" fill="#AD6418" p-id="1225"></path></svg>