<?xml version="1.0" standalone="no"?><!DOCTYPE svg PUBLIC "-//W3C//DTD SVG 1.1//EN" "http://www.w3.org/Graphics/SVG/1.1/DTD/svg11.dtd"><svg t="1657161887993" class="icon" viewBox="0 0 1024 1024" version="1.1" xmlns="http://www.w3.org/2000/svg" p-id="1373" xmlns:xlink="http://www.w3.org/1999/xlink" width="200" height="200"><defs><style type="text/css">@font-face { font-family: feedback-iconfont; src: url("//at.alicdn.com/t/font_1031158_u69w8yhxdu.woff2?t=1630033759944") format("woff2"), url("//at.alicdn.com/t/font_1031158_u69w8yhxdu.woff?t=1630033759944") format("woff"), url("//at.alicdn.com/t/font_1031158_u69w8yhxdu.ttf?t=1630033759944") format("truetype"); }
</style></defs><path d="M511.987501 511.982501m-433.195194 0a433.195194 433.195194 0 1 0 866.390387 0 433.195194 433.195194 0 1 0-866.390387 0Z" fill="#25467A" p-id="1374"></path><path d="M1012.440395 243.591674c-9.699668-9.699668-23.189207-13.249547-35.69878-10.719633 2.529914-12.509572-1.019965-25.999111-10.719633-35.688781-9.699668-9.699668-23.189207-13.249547-35.69878-10.719633 2.529914-12.509572-1.019965-25.999111-10.719634-35.69878-9.699668-9.699668-23.189207-13.249547-35.698779-10.719634 2.529914-12.509572-1.019965-25.999111-10.719634-35.69878-9.699668-9.699668-23.189207-13.249547-35.68878-10.719633 2.529914-12.509572-1.019965-25.999111-10.719634-35.69878-9.699668-9.699668-23.189207-13.249547-35.69878-10.719634 2.529914-12.509572-1.019965-25.999111-10.719633-35.698779-15.379474-15.379474-40.318622-15.379474-55.698096 0L613.294038 252.871357l74.257462 74.257462 9.279683 9.279683 74.257462 74.257462 241.341751-111.386193c15.379474-15.369475 15.379474-40.308622 0.009999-55.688097z" fill="#25467A" p-id="1375"></path><path d="M930.653191 253.681329c-6.699771-6.699771-16.019452-9.159687-24.669157-7.409746 1.74994-8.639705-0.699976-17.959386-7.409747-24.669157-6.699771-6.699771-16.019452-9.159687-24.669157-7.409747 1.74994-8.639705-0.699976-17.959386-7.409746-24.669157-6.699771-6.699771-16.029452-9.159687-24.669157-7.409747 1.74994-8.639705-0.699976-17.969386-7.409747-24.669156-6.699771-6.699771-16.019452-9.159687-24.669157-7.409747 1.74994-8.639705-0.699976-17.959386-7.409746-24.669157-6.699771-6.699771-16.019452-9.159687-24.669157-7.409747 1.74994-8.639705-0.699976-17.959386-7.409747-24.669157-10.629637-10.629637-27.859048-10.629637-38.488684 0L654.832618 260.09111l51.318246 51.318246 6.409781 6.409781 51.318246 51.318246 166.7743-76.967369c10.619637-10.629637 10.619637-27.859048 0-38.488685z" fill="#F87EAC" p-id="1376"></path><path d="M327.133819 687.5465l-74.257462-74.257462L11.534606 724.675231c-15.379474 15.379474-15.379474 40.318622 0 55.698096 9.699668 9.699668 23.189207 13.249547 35.69878 10.719634-2.529914 12.509572 1.019965 25.999111 10.719633 35.69878 9.699668 9.699668 23.189207 13.249547 35.69878 10.719633-2.529914 12.509572 1.019965 25.999111 10.719634 35.69878 9.699668 9.699668 23.189207 13.249547 35.69878 10.719634-2.529914 12.509572 1.019965 25.999111 10.719633 35.698779 9.699668 9.699668 23.189207 13.249547 35.68878 10.719634-2.529914 12.509572 1.019965 25.999111 10.719634 35.69878 9.699668 9.699668 23.189207 13.249547 35.69878 10.719633-2.529914 12.509572 1.019965 25.999111 10.719633 35.69878 15.379474 15.379474 40.318622 15.379474 55.698097 0l111.386193-241.341751-83.567144-83.577143z" fill="#25467A" p-id="1377"></path><path d="M89.641936 773.973546c6.699771 6.699771 16.019452 9.159687 24.669157 7.409747-1.74994 8.639705 0.699976 17.959386 7.409747 24.669156 6.699771 6.699771 16.019452 9.159687 24.669157 7.409747-1.74994 8.639705 0.699976 17.959386 7.409746 24.669157 6.699771 6.699771 16.029452 9.159687 24.669157 7.409747-1.74994 8.639705 0.699976 17.969386 7.409747 24.669156 6.699771 6.699771 16.019452 9.159687 24.669157 7.409747-1.74994 8.639705 0.699976 17.959386 7.409746 24.669157 6.699771 6.699771 16.019452 9.159687 24.669157 7.409747-1.74994 8.639705 0.699976 17.959386 7.409747 24.669157 10.629637 10.629637 27.859048 10.629637 38.488684 0l76.96737-166.7743-51.318246-51.318246-6.409781-6.409781-51.318246-51.318246-166.804299 76.93737c-10.629637 10.629637-10.629637 27.859048 0 38.488685z" fill="#F87EAC" p-id="1378"></path><path d="M511.987501 511.982501m-406.946091 0a406.946091 406.946091 0 1 0 813.892181 0 406.946091 406.946091 0 1 0-813.892181 0Z" fill="#25467A" p-id="1379"></path><path d="M511.987501 511.982501m-380.686989 0a380.686988 380.686988 0 1 0 761.373977 0 380.686988 380.686988 0 1 0-761.373977 0Z" fill="#F87EAC" p-id="1380"></path><path d="M807.377404 272.290693H216.597597a371.392306 371.392306 0 0 1 75.147431-70.49759h440.464945a371.497302 371.497302 0 0 1 75.167431 70.49759zM879.564937 413.285874H144.410064c6.489778-24.529162 15.50947-48.218352 26.789085-70.49759h681.576704c11.279614 22.279239 20.299306 45.968429 26.789084 70.49759zM892.674489 511.982501c0 9.449677-0.27999 18.889354-1.129962 28.199036H132.430474c-0.849971-9.309682-1.129961-18.749359-1.129962-28.199036s0.27999-18.889354 1.129962-28.199037h759.114053c0.849971 9.309682 1.129961 18.749359 1.129962 28.199037z" fill="#F8B0C0" p-id="1381"></path><path d="M879.564937 610.679127c-6.489778 24.529162-15.50947 48.218352-26.789084 70.497591H171.199149c-11.279614-22.279239-20.299306-45.968429-26.789085-70.497591h735.154873z" fill="#F8B0C0" p-id="1382"></path><path d="M807.377404 751.674308a371.392306 371.392306 0 0 1-75.147431 70.49759H291.755028a371.392306 371.392306 0 0 1-75.147431-70.49759H807.377404z" fill="#F8B0C0" p-id="1383"></path><path d="M511.987501 551.361155c-36.188763 0-65.637757-29.448993-65.637757-65.637757 0-7.249752 5.879799-13.129551 13.129551-13.129551s13.129551 5.879799 13.129552 13.129551c0 21.719258 17.669396 39.378654 39.378654 39.378654 21.719258 0 39.378654-17.669396 39.378654-39.378654 0-7.249752 5.879799-13.129551 13.129551-13.129551 7.249752 0 13.129551 5.879799 13.129551 13.129551 0 36.198763-29.448993 65.637757-65.637756 65.637757z" fill="#25467A" p-id="1384"></path><path d="M380.711988 380.706988m-39.378654 0a39.378654 39.378654 0 1 0 78.757308 0 39.378654 39.378654 0 1 0-78.757308 0Z" fill="#25467A" p-id="1385"></path><path d="M643.263014 380.706988m-39.378654 0a39.378654 39.378654 0 1 0 78.757308 0 39.378654 39.378654 0 1 0-78.757308 0Z" fill="#25467A" p-id="1386"></path><path d="M328.203782 446.344744H275.695577c-14.499504 0-26.259102 11.749598-26.259102 26.259103 0 14.499504 11.759598 26.259102 26.259102 26.259102h52.508205c14.499504 0 26.259102-11.759598 26.259103-26.259102 0-14.499504-11.759598-26.259102-26.259103-26.259103zM748.279424 446.344744h-52.508205c-14.499504 0-26.259102 11.749598-26.259103 26.259103 0 14.499504 11.759598 26.259102 26.259103 26.259102h52.508205c14.499504 0 26.259102-11.759598 26.259103-26.259102-0.01-14.499504-11.759598-26.259102-26.259103-26.259103z" fill="#FF509E" p-id="1387"></path></svg>