<svg id="图层_1" data-name="图层 1" xmlns="http://www.w3.org/2000/svg" xmlns:xlink="http://www.w3.org/1999/xlink" viewBox="0 0 691.73 691.73"><defs><style>.cls-1{fill:none;}.cls-2{clip-path:url(#clip-path);}.cls-3{fill:#fad400;}.cls-4{fill:#ffe771;}.cls-5{fill:#fff;}.cls-6{fill:#fff4c5;}</style><clipPath id="clip-path" transform="translate(-613.88 -194.19)"><rect class="cls-1" x="614" y="194" width="691.88" height="692.88"/></clipPath></defs><g class="cls-2"><path class="cls-3" d="M613.88,540.06c0,191,154.85,345.86,345.87,345.86s345.86-154.85,345.86-345.86S1150.76,194.19,959.75,194.19,613.88,349,613.88,540.06Zm0,0" transform="translate(-613.88 -194.19)"/></g><path class="cls-4" d="M779.77,464.73a205,205,0,0,0-165.69,84C617.73,695,712,818.62,842.85,865.61c82.57-26.63,142.33-104,142.33-195.51,0-113.42-91.95-205.37-205.41-205.37Zm0,0" transform="translate(-613.88 -194.19)"/><path class="cls-5" d="M1100.81,646.73v45.74a30,30,0,0,1-30.09,30.09H769.39a30.32,30.32,0,0,1-30.1-30.09V466.17a30.06,30.06,0,0,1,30.1-30.09h301.33a30.31,30.31,0,0,1,30.09,30.09Z" transform="translate(-613.88 -194.19)"/><path class="cls-3" d="M980.84,507.5c-19.26,0-34.91,16-34.91,35.31s15.65,35.31,34.91,35.31,34.91-16,34.91-35.31-15.65-35.31-34.91-35.31Z" transform="translate(-613.88 -194.19)"/><path class="cls-3" d="M981.64,665.59c69.42,0,69,0,69-8.83a69.56,69.56,0,0,0-55.38-68.21l-7.22,6.82h1.61l6.82,35.31c.8,4.82-.8,11.64-4.41,15.25l-10.84,11.23-11.63-11.23c-3.62-3.21-5.62-10-4.82-14.85l6.82-35.31h1.61l-6.82-7.62A70.16,70.16,0,0,0,911,656.76c0,8.83,1.21,8.83,70.62,8.83Z" transform="translate(-613.88 -194.19)"/><path class="cls-3" d="M788.65,599c0,6,5.61,10,11.63,10h54.17a10.83,10.83,0,0,0,0-21.66H799.88c-6,.4-11.23,5.61-11.23,11.63Z" transform="translate(-613.88 -194.19)"/><path class="cls-3" d="M788.65,552.84a11,11,0,0,0,10.83,10.83H924.27a10.84,10.84,0,0,0,0-21.66H799.48a10.78,10.78,0,0,0-10.83,10.83Z" transform="translate(-613.88 -194.19)"/><path class="cls-3" d="M788.65,508.3c0,6,5.21,10,11.23,10h96.3c6,0,10.83-4.41,10.83-10.43s-4.81-10.43-10.83-10.43h-96.3a11.13,11.13,0,0,0-11.23,10.83Z" transform="translate(-613.88 -194.19)"/><path class="cls-5" d="M788.65,508.3" transform="translate(-613.88 -194.19)"/><path class="cls-6" d="M1128.9,357.44H828c-16.45,0-31.3,21.66-31.3,38.52v22.47H1094c16.45,0,27.28,16,27.28,32.5V662.38h8c16.45,0,32.9-23.27,32.9-40.13V396c-.4-16.86-16.45-38.52-33.3-38.52Zm0,0" transform="translate(-613.88 -194.19)"/></svg>