<svg id="图层_1" data-name="图层 1" xmlns="http://www.w3.org/2000/svg" xmlns:xlink="http://www.w3.org/1999/xlink" viewBox="0 0 691.73 691.73"><defs><style>.cls-1{fill:none;}.cls-2{clip-path:url(#clip-path);}.cls-3{fill:#4aedcd;}.cls-4{fill:#83ffe1;}.cls-5{fill:#fff;}.cls-6{fill:#d2fff6;}</style><clipPath id="clip-path" transform="translate(-613.88 -194.19)"><rect class="cls-1" x="614" y="194" width="691.88" height="692.88"/></clipPath></defs><g class="cls-2"><path class="cls-3" d="M613.88,540.06c0,191,154.85,345.86,345.87,345.86s345.86-154.85,345.86-345.86S1150.76,194.19,959.75,194.19,613.88,349,613.88,540.06Zm0,0" transform="translate(-613.88 -194.19)"/></g><path class="cls-4" d="M779.81,464.73a205,205,0,0,0-165.68,84C617.77,695,712,818.62,842.89,865.61c82.57-26.63,142.33-104,142.33-195.51,0-113.42-92-205.37-205.41-205.37Zm0,0" transform="translate(-613.88 -194.19)"/><path class="cls-5" d="M792.71,682.22h345.65c11.23-1.12,10.11,2.25,10.11-10.1V644.06c0-15.71-3.37-19.08-19.08-19.08h-67.34c-9-6.73-10.1-15.71-12.34-18-39.28-43.77-16.84-72.95,7.85-113.35,4.49-5.61,9-11.22,12.35-17.95a121.84,121.84,0,0,0,15.71-60.61,126.82,126.82,0,0,0-253.63,0,124.7,124.7,0,0,0,26.93,77.44c26.94,42.64,70.7,77.43,0,132.42H791.59c-12.35,0-19.08,6.74-19.08,19.08v29.18c0,11.23,7.85,9,20.2,9Z" transform="translate(-613.88 -194.19)"/><path class="cls-6" d="M1167.54,701.3H753.43a10.06,10.06,0,0,0-10.1,10.1v10.1a10.06,10.06,0,0,0,10.1,10.1h413a10.06,10.06,0,0,0,10.1-10.1V711.4c0-5.61-4.49-10.1-9-10.1Z" transform="translate(-613.88 -194.19)"/><path d="M1167.54,701.3" transform="translate(-613.88 -194.19)"/><rect class="cls-1" x="129.45" y="94.27" width="433.34" height="443.69"/></svg>