<svg id="图层_1" data-name="图层 1" xmlns="http://www.w3.org/2000/svg" xmlns:xlink="http://www.w3.org/1999/xlink" viewBox="0 0 697.56 691.73"><defs><style>.cls-1{fill:none;}.cls-2{clip-path:url(#clip-path);}.cls-3{fill:#ff9648;}.cls-4{fill:#ffb680;}.cls-5{fill:#fff;}.cls-6{fill:#ffeacc;}</style><clipPath id="clip-path" transform="translate(-614.08 -193.97)"><rect class="cls-1" x="620.03" y="193.78" width="691.88" height="692.88"/></clipPath></defs><g class="cls-2"><path class="cls-3" d="M619.91,539.84c0,191,154.85,345.86,345.87,345.86s345.86-154.85,345.86-345.86S1156.79,194,965.78,194,619.91,348.82,619.91,539.84Zm0,0" transform="translate(-614.08 -193.97)"/></g><path class="cls-4" d="M779.77,464.73a205,205,0,0,0-165.69,84C617.73,695,712,818.62,842.85,865.61c82.57-26.63,142.33-104,142.33-195.51,0-113.38-91.95-205.37-205.41-205.37Zm0,0" transform="translate(-614.08 -193.97)"/><path class="cls-5" d="M1071.09,479.43q-.85,8.9-4.88,14.2a38,38,0,0,1-8.27,8.27,31.67,31.67,0,0,1-11,4.66,153,153,0,0,1-7.21,13.57q-3.39,5.5-7,10.81a43.94,43.94,0,0,1-7,8.27,73.73,73.73,0,0,1-7.21,5.72,42.53,42.53,0,0,0-5.94,4.88,21.51,21.51,0,0,0-4.23,6.15,33.13,33.13,0,0,0-2.55,8.69q-.84,5.94-1.91,11.87a42.22,42.22,0,0,0-.42,11.87,28.69,28.69,0,0,0,4,11.66q3.39,5.73,11.87,10.39V735.09a17.51,17.51,0,0,0,1.27,6.58A15.68,15.68,0,0,0,1024,747q-20.34,2.12-39.43,3.39t-33.49,1.27q-12.3,0-28.62-1.06T888.77,748q-17.38-1.49-34.34-3.4t-30.95-4q-14-2.13-23.75-4.24t-12.29-4.24q-4.68-3.4-7-20.78t1.91-44.94q1.7-10.6,7-17.39a51.41,51.41,0,0,1,12.94-11.66,71.73,71.73,0,0,1,17-7.84q9.33-3,19.09-5.73t18.86-5.93A87.42,87.42,0,0,0,873.93,610a65.67,65.67,0,0,0,13.78-10.82,32.53,32.53,0,0,0,6.78-10.38,30,30,0,0,0,1.91-10.6q0-5.52-.42-11.88-.86-10.17-6.79-15.68t-12.72-11.45a38.7,38.7,0,0,1-6.78-8.27,91,91,0,0,1-5.94-10.81q-3-6.36-5.93-13.57a33,33,0,0,1-8.91-3,35.19,35.19,0,0,1-7.63-5.93q-3.81-3.82-5.93-11a22.58,22.58,0,0,1-1.06-13.14,30.46,30.46,0,0,1,4.45-10.18,50.28,50.28,0,0,1,8.48-8.9,207.26,207.26,0,0,1,3.39-32.22A262.5,262.5,0,0,1,858,392.93a95.52,95.52,0,0,1,13.78-28,79.09,79.09,0,0,1,18-19.3A92.92,92.92,0,0,1,910.18,334,87.62,87.62,0,0,1,931,328.27a142.24,142.24,0,0,1,20.14-1.48,101.49,101.49,0,0,1,23.74,2.75A107.22,107.22,0,0,1,996,337a95,95,0,0,1,17.38,10.6,70.85,70.85,0,0,1,12.3,11.88,105.8,105.8,0,0,1,17.17,30.1,260.09,260.09,0,0,1,9.54,30.95,233.57,233.57,0,0,1,5.09,33.92,29.06,29.06,0,0,1,7.63,5.51,23,23,0,0,1,4.88,7.63q1.9,4.67,1.06,11.88Z" transform="translate(-614.08 -193.97)"/><path class="cls-6" d="M1147.62,624.43a14.88,14.88,0,0,0-11.24-4.66h-75a14.87,14.87,0,0,0-11.24,4.66,15.43,15.43,0,0,0-4.45,11V737.64a15.23,15.23,0,0,0,15.69,15.69H1116q3.39,0,9.33-5.94a133,133,0,0,0,11.87-13.78,173.36,173.36,0,0,0,10.39-15.26q4.45-7.43,4.45-10.82V635.45A15.43,15.43,0,0,0,1147.62,624.43Zm-74.84,24.38a6.63,6.63,0,0,1,5.51-2.75h42.4q3.4,0,3.82,4.66c.28,3.11.42,5.79.42,8.06s-.14,5-.42,8.26-1.55,4.88-3.82,4.88h-42.4c-2.26,0-4.09-1.34-5.51-4a19.28,19.28,0,0,1-2.12-9.11Q1070.66,651.57,1072.78,648.81Zm50.67,68.48q-1.9,5.09-5.3,5.08h-40.7q-3.39,0-5.3-4.66a21.92,21.92,0,0,1-1.91-8.06,18.94,18.94,0,0,1,1.91-7.63c1.27-2.82,3-4.24,5.3-4.24h40.7q3.39,0,5.3,3.82a16.17,16.17,0,0,1,1.91,7.21A25.3,25.3,0,0,1,1123.45,717.29Z" transform="translate(-614.08 -193.97)"/><path d="M1118.15,722.37" transform="translate(-614.08 -193.97)"/><rect class="cls-1" x="165.59" y="132.63" width="372.59" height="427.25"/></svg>