<svg id="图层_1" data-name="图层 1" xmlns="http://www.w3.org/2000/svg" xmlns:xlink="http://www.w3.org/1999/xlink" viewBox="0 0 691.73 691.73"><defs><style>.cls-1{fill:none;}.cls-2{clip-path:url(#clip-path);}.cls-3{fill:#51c5ff;}.cls-4{fill:#7be0ff;}.cls-5{fill:#caf8ff;}.cls-6{fill:#fff;}</style><clipPath id="clip-path" transform="translate(-613.88 -194.19)"><rect class="cls-1" x="614" y="194" width="691.88" height="692.88"/></clipPath></defs><g class="cls-2"><path class="cls-3" d="M613.88,540.06c0,191,154.85,345.86,345.87,345.86s345.86-154.85,345.86-345.86S1150.76,194.19,959.75,194.19,613.88,349,613.88,540.06Zm0,0" transform="translate(-613.88 -194.19)"/></g><path class="cls-4" d="M779.77,464.73a205,205,0,0,0-165.69,84C617.73,695,712,818.62,842.85,865.61c82.57-26.63,142.33-104,142.33-195.51,0-113.38-91.95-205.37-205.41-205.37Zm0,0" transform="translate(-613.88 -194.19)"/><path class="cls-5" d="M1186.22,587.12l-81.52-47.06L1186.22,493a28.26,28.26,0,0,0,10.36-38.58l-44.24-76.6a28.24,28.24,0,0,0-38.58-10.36l-81.51,47.06V320.43A28.27,28.27,0,0,0,1004,292.16H915.51a28.27,28.27,0,0,0-28.26,28.27v94.08l-81.51-47.06a28.25,28.25,0,0,0-38.59,10.36l-44.23,76.6A28.24,28.24,0,0,0,733.28,493l81.51,47.07-81.51,47.06a28.24,28.24,0,0,0-10.36,38.58l44.23,76.6a28.27,28.27,0,0,0,38.59,10.36l81.51-47.06v94.08A28.27,28.27,0,0,0,915.51,788H1004a28.27,28.27,0,0,0,28.27-28.27V665.6l81.51,47.06a28.26,28.26,0,0,0,38.58-10.36l44.24-76.6a28.26,28.26,0,0,0-10.36-38.58Zm0,0" transform="translate(-613.88 -194.19)"/><path class="cls-6" d="M772.35,540.06c0,103.49,83.9,187.39,187.4,187.39s187.39-83.9,187.39-187.39-83.9-187.4-187.39-187.4-187.4,83.9-187.4,187.4Zm0,0" transform="translate(-613.88 -194.19)"/><path class="cls-3" d="M876.88,540.06a82.87,82.87,0,1,0,41.43-71.77,82.86,82.86,0,0,0-41.43,71.77Zm0,0" transform="translate(-613.88 -194.19)"/></svg>